<?xml version="1.0" encoding="UTF-8" standalone="no"?>
<!DOCTYPE svg PUBLIC "-//W3C//DTD SVG 1.1//EN" "http://www.w3.org/Graphics/SVG/1.1/DTD/svg11.dtd">
<svg width="100%" height="100%" viewBox="0 0 16 16" version="1.1" xmlns="http://www.w3.org/2000/svg" xmlns:xlink="http://www.w3.org/1999/xlink" xml:space="preserve" xmlns:serif="http://www.serif.com/" style="fill-rule:evenodd;clip-rule:evenodd;stroke-linejoin:round;stroke-miterlimit:2;">
    <g transform="matrix(1,0,0,1,-0.418049,-1.00125)">
        <path d="M3.509,13.759C3.509,13.759 15.024,13.759 15.024,13.759L15.024,5.855L3.509,5.855L3.509,13.759ZM6.264,10.021L7.186,10.882L11.366,8.195L14.289,10.021L14.289,13.274L4.211,13.274L4.211,11.61L6.264,10.021ZM13.327,4.243L1.812,4.243C1.812,4.243 1.812,12.147 1.812,12.147L2.559,12.147L2.559,5.38C2.559,5.118 2.771,4.905 3.034,4.905L13.327,4.905L13.327,4.243ZM5.562,6.521C6.308,6.521 6.913,7.126 6.913,7.872C6.913,8.618 6.308,9.224 5.562,9.224C4.816,9.224 4.211,8.618 4.211,7.872C4.211,7.126 4.816,6.521 5.562,6.521ZM2.559,13.097L1.337,13.097C1.075,13.097 0.862,12.885 0.862,12.622L0.862,3.768C0.862,3.506 1.075,3.293 1.337,3.293L13.802,3.293C14.065,3.293 14.277,3.506 14.277,3.768L14.277,4.905L15.499,4.905C15.762,4.905 15.974,5.118 15.974,5.38L15.974,14.234C15.974,14.496 15.762,14.709 15.499,14.709L3.034,14.709C2.771,14.709 2.559,14.496 2.559,14.234L2.559,13.097Z" style="fill:rgb(120,120,120);"/>
    </g>
</svg>
