<?xml version="1.0" encoding="UTF-8" standalone="no"?>
<!DOCTYPE svg PUBLIC "-//W3C//DTD SVG 1.1//EN" "http://www.w3.org/Graphics/SVG/1.1/DTD/svg11.dtd">
<svg width="100%" height="100%" viewBox="0 0 16 16" version="1.1" xmlns="http://www.w3.org/2000/svg" xmlns:xlink="http://www.w3.org/1999/xlink" xml:space="preserve" xmlns:serif="http://www.serif.com/" style="fill-rule:evenodd;clip-rule:evenodd;stroke-linejoin:round;stroke-miterlimit:1.41421;">
<style type="text/css">
	.st0{fill:#787878;}
</style>
<g transform="matrix(0.0284413,0,0,0.0284413,0,0)">
	<path class="st0" d="M512.563,50.001L395.896,50.001C368.396,50.001 329.987,65.91 310.541,85.356L114.584,281.312C95.139,300.757 95.139,332.577 114.584,352.023L260.541,497.976C279.986,517.422 311.806,517.422 331.252,497.976L527.206,302.023C546.653,282.577 562.563,244.167 562.563,216.667L562.563,100.001C562.563,72.501 540.063,50.001 512.563,50.001ZM445.896,216.667C418.282,216.667 395.896,194.282 395.896,166.667C395.896,139.053 418.282,116.667 445.896,116.667C473.51,116.667 495.896,139.053 495.896,166.667C495.896,194.282 473.51,216.667 445.896,216.667ZM41.013,328.451L219.335,506.772C200.447,516.751 176.386,513.825 160.54,497.976L14.584,352.023C-4.861,332.577 -4.861,300.757 14.584,281.312L210.541,85.356C229.987,65.91 268.396,50.001 295.896,50.001L41.013,304.882C34.532,311.364 34.532,321.97 41.013,328.451Z" style="fill-rule:nonzero;"/>
</g>
</svg>
